:SAMPLES-PER-SECOND 30
:FULLY-SPECIFIED
:DEGREES
250
root  60.0514 24.82 -1.94002 -22.4529 -0.636882 -3.94167
RightUpLeg  -56.3145 -12.462 1.68345
RightLeg  77.1583 -1.61763 -9.80267
RightFoot  0.909593 0.327695 -2.99313
RightToes  0.000482159 0.542163 -0.142577
Spine  47.2112 -3.51016 8.9167
Spine1  -4.30733 -0.707275 -0.734576
HEad  -16.7184 3.53737 -2.49264
LeftShoulder1  10.8731 -16.4682 -47.5142
LeftArm  2.20206 -3.72125 -20.4047
LeftForeArm  33.8703 -15.0685 -6.2833
LeftHand  -0.25398 0.0180481 5.50724
RightShoulder  5.63714 10.9978 32.9273
RightArm  -7.72677 -0.370372 35.8456
RightForeArm  10.1368 13.7098 5.88404
RightHand  -2.09379 6.99406 -19.8529
LeftUpLeg  -57.7828 7.36017 1.72488
LeftLeg  74.9365 1.3503 6.9488
LeftFoot  4.03151 -0.575041 4.07766
LeftToes  1.06245e-005 4.65855e-005 -8.18503e-006
251
root  60.0474 24.8358 -1.93511 -22.096 -0.633579 -3.86981
RightUpLeg  -56.6789 -12.1812 1.65008
RightLeg  77.1333 -1.65223 -9.95401
RightFoot  0.941127 0.327239 -2.97909
RightToes  0.000482159 0.542163 -0.142577
Spine  47.9581 -3.62265 8.86692
Spine1  -4.88475 -0.79404 -0.738647
HEad  -17.2463 3.55849 -2.68492
LeftShoulder1  10.8349 -16.4274 -47.4431
LeftArm  1.6773 -3.63313 -20.1081
LeftForeArm  34.8835 -15.0439 -6.19716
LeftHand  -0.25398 0.0180481 5.50724
RightShoulder  5.61546 10.9586 32.8829
RightArm  -7.69715 -0.301982 35.7672
RightForeArm  10.1147 13.9589 5.82412
RightHand  -2.07227 6.96617 -19.6974
LeftUpLeg  -58.1037 7.26322 1.66338
LeftLeg  74.8728 1.36767 6.98804
LeftFoot  4.04668 -0.554206 3.91844
LeftToes  1.06245e-005 4.65855e-005 -8.18503e-006
252
root  60.0394 24.857 -1.92868 -21.6253 -0.442715 -3.71743
RightUpLeg  -57.1682 -12.0529 1.46559
RightLeg  77.1276 -1.68082 -10.0923
RightFoot  0.993402 0.326903 -2.96009
RightToes  0.000482159 0.542163 -0.142577
Spine  48.7365 -3.73789 8.71997
Spine1  -5.38776 -0.942416 -0.6765
HEad  -18.0135 3.52053 -2.7183
LeftShoulder1  10.7958 -16.4287 -47.2656
LeftArm  1.40171 -3.65084 -19.9437
LeftForeArm  35.2111 -15.0428 -6.15151
LeftHand  -0.25398 0.0180481 5.50724
RightShoulder  5.57292 10.8756 32.8116
RightArm  -7.43306 -0.172672 35.6831
RightForeArm  9.79275 14.5162 5.72333
RightHand  -2.01404 6.76076 -19.4739
LeftUpLeg  -58.5162 7.00331 1.42112
LeftLeg  74.7181 1.40214 7.04914
LeftFoot  4.1459 -0.542567 3.80936
LeftToes  1.06245e-005 4.65855e-005 -8.18503e-006
253
root  60.0306 24.8909 -1.91042 -20.9932 -0.302991 -3.55423
RightUpLeg  -57.7772 -11.9029 1.2875
RightLeg  77.0978 -1.66525 -9.9866
RightFoot  1.01888 0.299185 -2.6966
RightToes  0.000482159 0.542163 -0.142577
Spine  49.5548 -3.7718 8.52985
Spine1  -5.79174 -1.04636 -0.50409
HEad  -19.1427 3.48633 -2.61393
LeftShoulder1  10.7565 -16.4318 -47.0819
LeftArm  1.53463 -3.84203 -19.8702
LeftForeArm  34.3426 -15.1288 -6.15309
LeftHand  -0.25398 0.0180481 5.50724
RightShoulder  5.54471 10.8486 32.6882
RightArm  -6.96119 0.0552014 35.562
RightForeArm  9.24547 15.1847 5.62357
RightHand  -2.02853 6.8376 -19.4911
LeftUpLeg  -59.0564 6.86802 1.15319
LeftLeg  74.5441 1.43107 7.07559
LeftFoot  4.19986 -0.537251 3.78144
LeftToes  1.06245e-005 4.65855e-005 -8.18503e-006
254
root  60.0232 24.9383 -1.86885 -20.1592 -0.407231 -3.45021
RightUpLeg  -58.5396 -11.5572 1.25117
RightLeg  77.0719 -1.54253 -9.34597
RightFoot  1.0094 0.248058 -2.22731
RightToes  0.000482159 0.542163 -0.142577
Spine  50.5065 -3.71214 8.41895
Spine1  -6.21234 -1.00479 -0.315085
HEad  -20.5466 3.44588 -2.44323
LeftShoulder1  10.7019 -16.3847 -46.9511
LeftArm  1.828 -4.22352 -19.8239
LeftForeArm  33.2897 -15.3342 -6.12555
LeftHand  -0.25398 0.0180481 5.50724
RightShoulder  5.5204 10.8792 32.4367
RightArm  -6.49695 0.339778 35.4719
RightForeArm  8.81058 15.9154 5.49115
RightHand  -2.06894 7.06775 -19.516
LeftUpLeg  -59.7798 7.03551 1.01675
LeftLeg  74.4424 1.43533 7.03911
LeftFoot  4.12211 -0.533504 3.76732
LeftToes  1.06245e-005 4.65855e-005 -8.18503e-006
255
root  60.015 24.9911 -1.80448 -19.2057 -0.581571 -3.37905
RightUpLeg  -59.4215 -11.1652 1.25394
RightLeg  77.1501 -1.3314 -8.34073
RightFoot  0.987762 0.204372 -1.82863
RightToes  0.000482159 0.542163 -0.142577
Spine  51.7181 -3.66561 8.40634
Spine1  -6.71324 -0.881409 -0.223084
HEad  -22.1168 3.34723 -2.19417
LeftShoulder1  10.6551 -16.36 -46.8004
LeftArm  2.15404 -4.67739 -19.7646
LeftForeArm  32.7211 -15.7671 -5.96825
LeftHand  -0.25398 0.0180481 5.50724
RightShoulder  5.46884 10.8591 32.1308
RightArm  -5.98188 0.624692 35.416
RightForeArm  8.1675 16.9449 5.28502
RightHand  -2.07283 7.14461 -19.4374
LeftUpLeg  -60.6214 7.26919 0.93068
LeftLeg  74.3932 1.42566 6.9744
LeftFoot  4.02534 -0.529018 3.73685
LeftToes  1.06245e-005 4.65855e-005 -8.18503e-006
256
root  60 25.0485 -1.72934 -18.2204 -0.583813 -3.29554
RightUpLeg  -60.3433 -10.9849 1.23276
RightLeg  77.292 -1.1695 -7.61739
RightFoot  0.966879 0.192104 -1.7193
RightToes  0.000482159 0.542163 -0.142577
Spine  53.2422 -3.68753 8.36948
Spine1  -7.20836 -0.809742 -0.101429
HEad  -23.9744 3.22105 -1.8947
LeftShoulder1  10.644 -16.4441 -46.5474
LeftArm  2.77457 -5.08917 -19.6776
LeftForeArm  31.8375 -16.6364 -5.61282
LeftHand  -0.25398 0.0180481 5.50724
RightShoulder  5.39643 10.7785 31.8378
RightArm  -5.26479 0.943234 35.3603
RightForeArm  6.90028 18.5214 4.998
RightHand  -2.08473 7.13769 -19.5545
LeftUpLeg  -61.4765 7.30142 0.764806
LeftLeg  74.3029 1.42715 6.93418
LeftFoot  4.00161 -0.527295 3.73588
LeftToes  1.06245e-005 4.65855e-005 -8.18503e-006
